<svg width="27" height="26" viewBox="0 0 27 26" fill="none" xmlns="http://www.w3.org/2000/svg">
<path fill-rule="evenodd" clip-rule="evenodd" d="M12.3999 0.5H13.8499C20.5996 0.5 26.0713 5.78304 26.0713 12.3V13.7C26.0713 20.217 20.5996 25.5 13.8499 25.5H12.3999C5.65019 25.5 0.178467 20.217 0.178467 13.7V12.3C0.178467 5.78304 5.65019 0.5 12.3999 0.5ZM13.8499 23.625C19.5095 23.5842 24.0871 19.1644 24.1294 13.7V12.3C24.0871 6.83558 19.5095 2.41583 13.8499 2.375H12.3999C6.74031 2.41583 2.16272 6.83558 2.12043 12.3V13.7C2.16272 19.1644 6.74031 23.5842 12.3999 23.625H13.8499Z" fill="#407BFF"/>
<path d="M18.3035 12.0625H14.0959V8C14.0959 7.48223 13.6612 7.0625 13.1249 7.0625C12.5886 7.0625 12.1539 7.48223 12.1539 8V12.0625H7.94632C7.41007 12.0625 6.97534 12.4822 6.97534 13C6.97534 13.5178 7.41007 13.9375 7.94632 13.9375H12.1539V18C12.1539 18.5178 12.5886 18.9375 13.1249 18.9375C13.6612 18.9375 14.0959 18.5178 14.0959 18V13.9375H18.3035C18.8397 13.9375 19.2744 13.5178 19.2744 13C19.2744 12.4822 18.8397 12.0625 18.3035 12.0625Z" fill="#407BFF"/>
</svg>
