<svg width="12" height="14" viewBox="0 0 12 14" fill="none" xmlns="http://www.w3.org/2000/svg">
<path fill-rule="evenodd" clip-rule="evenodd" d="M7.2518 1.21696C7.72736 0.786061 8.35042 0.554543 8.99197 0.570338C9.63351 0.586134 10.2444 0.848034 10.6982 1.30181C11.152 1.75559 11.4139 2.3665 11.4297 3.00805C11.4455 3.64959 11.2139 4.27265 10.7831 4.74821C10.7783 4.75343 10.7735 4.75854 10.7685 4.76355L4.5623 11.0573C4.55572 11.064 4.54895 11.0705 4.542 11.0768C4.25667 11.3353 3.88283 11.4742 3.49791 11.4647C3.11298 11.4553 2.74643 11.2981 2.47417 11.0258C2.2019 10.7536 2.04476 10.387 2.03528 10.0021C2.0258 9.61718 2.16471 9.24335 2.42325 8.95801C2.42783 8.95296 2.43251 8.948 2.43729 8.94314L7.64354 3.64939C7.83717 3.45251 8.15374 3.44987 8.35062 3.6435C8.5475 3.83712 8.55014 4.1537 8.35651 4.35058L3.15867 9.63578C3.07611 9.73006 3.03189 9.85201 3.03498 9.97749C3.03814 10.1058 3.09052 10.228 3.18127 10.3187C3.27203 10.4095 3.39421 10.4619 3.52252 10.465C3.64694 10.4681 3.76789 10.4246 3.86183 10.3434L10.0486 4.06947C10.3029 3.78507 10.4394 3.41432 10.43 3.03266C10.4205 2.64773 10.2634 2.28119 9.99109 2.00892C9.71882 1.73665 9.35228 1.57951 8.96735 1.57004C8.58677 1.56067 8.21704 1.69635 7.93296 1.94929L1.73484 8.2348C1.26668 8.70296 1.00366 9.33791 1.00366 9.99998C1.00366 10.6621 1.26667 11.297 1.73483 11.7652C2.20299 12.2333 2.83795 12.4963 3.50003 12.4963C4.1621 12.4963 4.79706 12.2333 5.26522 11.7652L10.3969 6.646C10.5924 6.45098 10.909 6.45136 11.104 6.64686C11.299 6.84236 11.2986 7.15894 11.1031 7.35397L5.97233 12.4723C5.31664 13.128 4.42732 13.4963 3.50003 13.4963C2.57273 13.4963 1.68342 13.128 1.02772 12.4723C0.372028 11.8166 0.00366211 10.9273 0.00366211 9.99998C0.00366211 9.0733 0.371544 8.18455 1.02643 7.52897L7.23151 1.23641C7.23809 1.22974 7.24486 1.22325 7.2518 1.21696Z" fill="#407BFF"/>
</svg>
