<svg width="20" height="23" viewBox="0 0 20 23" fill="none" xmlns="http://www.w3.org/2000/svg">
<path d="M14.9902 23H4.99023C4.19458 23 3.43151 22.6839 2.8689 22.1213C2.30629 21.5587 1.99023 20.7956 1.99023 20V3H17.9902V20C17.9902 20.7956 17.6742 21.5587 17.1116 22.1213C16.549 22.6839 15.7859 23 14.9902 23ZM3.99023 5V20C3.99023 20.2652 4.09561 20.5196 4.28314 20.7071C4.47068 20.8946 4.72502 21 4.99023 21H14.9902C15.2555 21 15.5098 20.8946 15.6973 20.7071C15.8849 20.5196 15.9902 20.2652 15.9902 20V5H3.99023Z" fill="#C30052"/>
<path d="M20 3H0V5H20V3Z" fill="#C30052"/>
<path d="M14.9902 4H12.9902V2H6.99023V4H4.99023V2C4.99023 1.46957 5.20098 0.960858 5.57605 0.585785C5.95112 0.210712 6.4598 0 6.99023 0H12.9902C13.5207 0 14.0293 0.210712 14.4044 0.585785C14.7795 0.960858 14.9902 1.46957 14.9902 2V4Z" fill="#C30052"/>
<path d="M11 7H9V19H11V7Z" fill="#C30052"/>
<path d="M8 7H6V19H8V7Z" fill="#C30052"/>
<path d="M14 7H12V19H14V7Z" fill="#C30052"/>
</svg>
