<svg width="18" height="17" viewBox="0 0 18 17" fill="none" xmlns="http://www.w3.org/2000/svg">
<path d="M17.3111 15.4062C16.24 13.5262 14.5674 12.0614 12.5627 11.2476C13.5596 10.4999 14.296 9.45742 14.6676 8.26793C15.0392 7.07844 15.0271 5.80218 14.633 4.61996C14.2389 3.43773 13.4829 2.40946 12.4719 1.68081C11.461 0.952155 10.2464 0.560059 9.00019 0.560059C7.75401 0.560059 6.53942 0.952155 5.52847 1.68081C4.51752 2.40946 3.76146 3.43773 3.36738 4.61996C2.9733 5.80218 2.96119 7.07844 3.33276 8.26793C3.70433 9.45742 4.44075 10.4999 5.43769 11.2476C3.43294 12.0614 1.76038 13.5262 0.68925 15.4062C0.622879 15.5129 0.578643 15.6319 0.559172 15.756C0.539701 15.8802 0.545392 16.007 0.575907 16.1289C0.606422 16.2508 0.661138 16.3653 0.736803 16.4657C0.812467 16.566 0.907535 16.6501 1.01635 16.713C1.12517 16.7759 1.24552 16.8162 1.37025 16.8317C1.49497 16.8471 1.62153 16.8373 1.74239 16.8028C1.86325 16.7684 1.97595 16.71 2.07379 16.6311C2.17162 16.5522 2.2526 16.4545 2.31191 16.3437C3.72753 13.8968 6.22753 12.4374 9.00019 12.4374C11.7728 12.4374 14.2728 13.8976 15.6885 16.3437C15.817 16.5503 16.0209 16.6989 16.2569 16.758C16.493 16.8171 16.7428 16.7821 16.9536 16.6603C17.1643 16.5386 17.3194 16.3396 17.3861 16.1056C17.4529 15.8715 17.426 15.6207 17.3111 15.4062ZM4.93769 6.4999C4.93769 5.69642 5.17595 4.91097 5.62234 4.2429C6.06874 3.57482 6.70321 3.05412 7.44554 2.74664C8.18786 2.43916 9.00469 2.35871 9.79274 2.51546C10.5808 2.67221 11.3047 3.05913 11.8728 3.62728C12.441 4.19543 12.8279 4.9193 12.9846 5.70735C13.1414 6.4954 13.0609 7.31223 12.7534 8.05455C12.446 8.79688 11.9253 9.43135 11.2572 9.87775C10.5891 10.3241 9.80367 10.5624 9.00019 10.5624C7.92313 10.5612 6.89053 10.1328 6.12894 9.37115C5.36734 8.60956 4.93893 7.57696 4.93769 6.4999Z" fill="#407BFF"/>
</svg>
