<svg width="50" height="50" viewBox="0 0 50 50" fill="none" xmlns="http://www.w3.org/2000/svg">
<rect width="50" height="50" fill="#E5EDFF"/>
<path d="M37.5002 31.25V45.8333M44.7918 38.5417H30.2085" stroke="#407BFF" stroke-width="3.6017" stroke-linecap="round"/>
<path d="M14.5835 33.3334H22.9168M14.5835 22.9167H31.2502" stroke="#407BFF" stroke-width="3.6017" stroke-linecap="round"/>
<path d="M13.5417 7.29175C10.3004 7.38898 8.36795 7.74975 7.03078 9.08814C5.2002 10.9204 5.2002 13.8695 5.2002 19.7675V33.3218C5.2002 39.2199 5.2002 42.1688 7.03078 44.0011C8.86136 45.8334 11.8077 45.8334 17.7002 45.8334H23.9583M32.2754 7.29175C35.5167 7.38898 37.4492 7.74975 38.7863 9.08816C40.6169 10.9204 40.6169 13.8695 40.6169 19.7675V25.0001" stroke="#407BFF" stroke-width="3.6017" stroke-linecap="round"/>
<path d="M13.5337 7.81258C13.5337 5.79904 15.166 4.16675 17.1795 4.16675H28.6379C30.6514 4.16675 32.2837 5.79904 32.2837 7.81258C32.2837 9.82612 30.6514 11.4584 28.6379 11.4584H17.1795C15.166 11.4584 13.5337 9.82612 13.5337 7.81258Z" stroke="#407BFF" stroke-width="3.6017" stroke-linejoin="round"/>
</svg>
