<svg width="55" height="55" viewBox="0 0 55 55" fill="none" xmlns="http://www.w3.org/2000/svg">
<path fill-rule="evenodd" clip-rule="evenodd" d="M38.1401 47.8021C34.9605 49.4719 31.3406 50.4167 27.5 50.4167C23.6594 50.4167 20.0395 49.4719 16.8599 47.8021C16.3321 46.4851 16.0417 45.0473 16.0417 43.5417C16.0417 37.2134 21.1717 32.0833 27.5 32.0833C33.8283 32.0833 38.9583 37.2134 38.9583 43.5417C38.9583 45.0473 38.6679 46.4851 38.1401 47.8021ZM43.5384 43.869C43.5406 43.7601 43.5417 43.651 43.5417 43.5417C43.5417 37.3712 40.0579 32.0145 34.9499 29.3311C37.4035 27.2296 38.9583 24.1089 38.9583 20.625C38.9583 14.2967 33.8283 9.16665 27.5 9.16665C21.1717 9.16665 16.0417 14.2967 16.0417 20.625C16.0417 24.1089 17.5965 27.2296 20.0501 29.3311C14.9421 32.0145 11.4583 37.3712 11.4583 43.5417C11.4583 43.651 11.4594 43.7601 11.4616 43.869C7.21699 39.7096 4.58333 33.9123 4.58333 27.5C4.58333 14.8435 14.8435 4.58333 27.5 4.58333C40.1565 4.58333 50.4167 14.8435 50.4167 27.5C50.4167 33.9123 47.783 39.7096 43.5384 43.869ZM40.6081 51.6809C49.1806 47.0241 55 37.9416 55 27.5C55 12.3122 42.6878 0 27.5 0C12.3122 0 0 12.3122 0 27.5C0 37.5061 5.3441 46.264 13.3338 51.0753C17.4476 53.5526 22.2628 54.9836 27.411 54.9999M27.5188 55C32.258 54.9968 36.7167 53.7949 40.6081 51.6809ZM27.5 27.5C31.297 27.5 34.375 24.4219 34.375 20.625C34.375 16.828 31.297 13.75 27.5 13.75C23.703 13.75 20.625 16.828 20.625 20.625C20.625 24.4219 23.703 27.5 27.5 27.5Z" fill="#2B2B43"/>
</svg>
