<svg width="162" height="64" viewBox="0 0 162 64" fill="none" xmlns="http://www.w3.org/2000/svg">
<rect width="50" height="50" transform="translate(69 7)" fill="#E5EDFF"/>
<path d="M106.5 38.25V52.8333M113.792 45.5417H99.2085" stroke="#407BFF" stroke-width="3.6017" stroke-linecap="round"/>
<path d="M83.5835 40.3334H91.9168M83.5835 29.9167H100.25" stroke="#407BFF" stroke-width="3.6017" stroke-linecap="round"/>
<path d="M82.5417 14.2917C79.3004 14.389 77.3679 14.7497 76.0308 16.0881C74.2002 17.9204 74.2002 20.8695 74.2002 26.7675V40.3218C74.2002 46.2199 74.2002 49.1688 76.0308 51.0011C77.8614 52.8334 80.8077 52.8334 86.7002 52.8334H92.9583M101.275 14.2917C104.517 14.389 106.449 14.7497 107.786 16.0882C109.617 17.9204 109.617 20.8695 109.617 26.7675V32.0001" stroke="#407BFF" stroke-width="3.6017" stroke-linecap="round"/>
<path d="M82.5337 14.8126C82.5337 12.799 84.166 11.1667 86.1795 11.1667H97.6379C99.6514 11.1667 101.284 12.799 101.284 14.8126C101.284 16.8261 99.6514 18.4584 97.6379 18.4584H86.1795C84.166 18.4584 82.5337 16.8261 82.5337 14.8126Z" stroke="#407BFF" stroke-width="3.6017" stroke-linejoin="round"/>
<path d="M15.72 8.15V10.94H10.17V29H6.75V10.94H1.17V8.15H15.72ZM18.0436 20.66C18.0436 19 18.3836 17.53 19.0636 16.25C19.7636 14.97 20.7036 13.98 21.8836 13.28C23.0836 12.56 24.4036 12.2 25.8436 12.2C27.1436 12.2 28.2736 12.46 29.2336 12.98C30.2136 13.48 30.9936 14.11 31.5736 14.87V12.47H35.0236V29H31.5736V26.54C30.9936 27.32 30.2036 27.97 29.2036 28.49C28.2036 29.01 27.0636 29.27 25.7836 29.27C24.3636 29.27 23.0636 28.91 21.8836 28.19C20.7036 27.45 19.7636 26.43 19.0636 25.13C18.3836 23.81 18.0436 22.32 18.0436 20.66ZM31.5736 20.72C31.5736 19.58 31.3336 18.59 30.8536 17.75C30.3936 16.91 29.7836 16.27 29.0236 15.83C28.2636 15.39 27.4436 15.17 26.5636 15.17C25.6836 15.17 24.8636 15.39 24.1036 15.83C23.3436 16.25 22.7236 16.88 22.2436 17.72C21.7836 18.54 21.5536 19.52 21.5536 20.66C21.5536 21.8 21.7836 22.8 22.2436 23.66C22.7236 24.52 23.3436 25.18 24.1036 25.64C24.8836 26.08 25.7036 26.3 26.5636 26.3C27.4436 26.3 28.2636 26.08 29.0236 25.64C29.7836 25.2 30.3936 24.56 30.8536 23.72C31.3336 22.86 31.5736 21.86 31.5736 20.72ZM45.5156 29.27C44.2156 29.27 43.0456 29.04 42.0056 28.58C40.9856 28.1 40.1756 27.46 39.5756 26.66C38.9756 25.84 38.6556 24.93 38.6156 23.93H42.1556C42.2156 24.63 42.5456 25.22 43.1456 25.7C43.7656 26.16 44.5356 26.39 45.4556 26.39C46.4156 26.39 47.1556 26.21 47.6756 25.85C48.2156 25.47 48.4856 24.99 48.4856 24.41C48.4856 23.79 48.1856 23.33 47.5856 23.03C47.0056 22.73 46.0756 22.4 44.7956 22.04C43.5556 21.7 42.5456 21.37 41.7656 21.05C40.9856 20.73 40.3056 20.24 39.7256 19.58C39.1656 18.92 38.8856 18.05 38.8856 16.97C38.8856 16.09 39.1456 15.29 39.6656 14.57C40.1856 13.83 40.9256 13.25 41.8856 12.83C42.8656 12.41 43.9856 12.2 45.2456 12.2C47.1256 12.2 48.6356 12.68 49.7756 13.64C50.9356 14.58 51.5556 15.87 51.6356 17.51H48.2156C48.1556 16.77 47.8556 16.18 47.3156 15.74C46.7756 15.3 46.0456 15.08 45.1256 15.08C44.2256 15.08 43.5356 15.25 43.0556 15.59C42.5756 15.93 42.3356 16.38 42.3356 16.94C42.3356 17.38 42.4956 17.75 42.8156 18.05C43.1356 18.35 43.5256 18.59 43.9856 18.77C44.4456 18.93 45.1256 19.14 46.0256 19.4C47.2256 19.72 48.2056 20.05 48.9656 20.39C49.7456 20.71 50.4156 21.19 50.9756 21.83C51.5356 22.47 51.8256 23.32 51.8456 24.38C51.8456 25.32 51.5856 26.16 51.0656 26.9C50.5456 27.64 49.8056 28.22 48.8456 28.64C47.9056 29.06 46.7956 29.27 45.5156 29.27ZM62.081 20.75L69.701 29H65.081L58.961 21.89V29H55.541V6.8H58.961V19.7L64.961 12.47H69.701L62.081 20.75Z" fill="black"/>
<path d="M24.79 33.065V56H21.028V45.968H10.237V56H6.475V33.065H10.237V42.899H21.028V33.065H24.79ZM33.4716 33.065V47.684C33.4716 49.422 33.9226 50.731 34.8246 51.611C35.7486 52.491 37.0246 52.931 38.6526 52.931C40.3026 52.931 41.5786 52.491 42.4806 51.611C43.4046 50.731 43.8666 49.422 43.8666 47.684V33.065H47.6286V47.618C47.6286 49.488 47.2216 51.072 46.4076 52.37C45.5936 53.668 44.5046 54.636 43.1406 55.274C41.7766 55.912 40.2696 56.231 38.6196 56.231C36.9696 56.231 35.4626 55.912 34.0986 55.274C32.7566 54.636 31.6896 53.668 30.8976 52.37C30.1056 51.072 29.7096 49.488 29.7096 47.618V33.065H33.4716ZM64.8028 44.219C66.0348 44.439 67.0798 45.088 67.9378 46.166C68.7958 47.244 69.2248 48.465 69.2248 49.829C69.2248 50.995 68.9168 52.051 68.3008 52.997C67.7068 53.921 66.8378 54.658 65.6938 55.208C64.5498 55.736 63.2188 56 61.7008 56H52.5268V33.065H61.2718C62.8338 33.065 64.1758 33.329 65.2978 33.857C66.4198 34.385 67.2668 35.1 67.8388 36.002C68.4108 36.882 68.6968 37.872 68.6968 38.972C68.6968 40.292 68.3448 41.392 67.6408 42.272C66.9368 43.152 65.9908 43.801 64.8028 44.219ZM56.2888 42.701H60.9418C62.1738 42.701 63.1308 42.426 63.8128 41.876C64.5168 41.304 64.8688 40.49 64.8688 39.434C64.8688 38.4 64.5168 37.597 63.8128 37.025C63.1308 36.431 62.1738 36.134 60.9418 36.134H56.2888V42.701ZM61.3708 52.931C62.6468 52.931 63.6478 52.623 64.3738 52.007C65.0998 51.391 65.4628 50.533 65.4628 49.433C65.4628 48.311 65.0778 47.42 64.3078 46.76C63.5378 46.1 62.5148 45.77 61.2388 45.77H56.2888V52.931H61.3708Z" fill="black"/>
</svg>
